<svg xmlns="http://www.w3.org/2000/svg" viewBox="0 0 799.11 341.1"><defs><style>.cls-1{fill:#fff;}</style></defs><g id="Capa_2" data-name="Capa 2"><g id="Capa_1-2" data-name="Capa 1"><path class="cls-1" d="M.07,109.29l1.84-10a3.21,3.21,0,0,1,3.55-3.15H66q3.28,0,2.76,3.15l-1.71,10a3.48,3.48,0,0,1-3.81,3.28H42L29.17,185.29q-.78,3.35-3.63,3.34H13.74q-3.24,0-2.72-3.3l12.83-72.76h-21Q-.46,112.57.07,109.29Z"></path><path class="cls-1" d="M121.32,185.34l6.28-35.59H91l-6.28,35.57q-.51,3.31-3.65,3.31H69.28c-2.35,0-3.27-1.1-2.74-3.29l15-86a3.36,3.36,0,0,1,3.66-3.14H97.11q3.27,0,2.75,3.12l-6,33.92h36.63l6-33.9a3.34,3.34,0,0,1,3.63-3.14h11.8c2.08,0,3,1,2.72,3.1L139.47,185.3q-.53,3.33-3.5,3.33h-11.8Q120.8,188.63,121.32,185.34Z"></path><path class="cls-1" d="M218.08,149.09H182.93l-4.21,23.77H216c2.18,0,3.1,1.06,2.75,3.16l-1.57,9.32q-.79,3.28-3.81,3.29H161.15q-3.56,0-2.77-3.3l15.22-86a3.37,3.37,0,0,1,3.68-3.15h51.64q3.42,0,2.89,3.15l-1.71,9.33q-.53,3.28-3.67,3.28H189.51l-3.88,21.94H220.7c2,0,2.89,1.1,2.63,3.28l-1.58,8.67C221.32,148,220.09,149.09,218.08,149.09Z"></path><path class="cls-1" d="M250.93,96.15h28.33q34.75,0,34.76,23.91a51.4,51.4,0,0,1-.66,7.62q-3.94,22.88-27.63,27.61l17.07,29.3a2.76,2.76,0,0,1,.13,2.73,2.51,2.51,0,0,1-2.48,1.31H288.8a4.08,4.08,0,0,1-4.19-2.64l-16.3-28.23H255.1l-4.86,27.57q-.78,3.3-3.63,3.3H234.94c-2.34,0-3.24-1.09-2.72-3.26l15-86.05A3.38,3.38,0,0,1,250.93,96.15Zm6.86,46.37H271.9q10.94,0,16.28-3.68T295,127.28a26.12,26.12,0,0,0,.4-4.2q0-5.91-4.27-8.54t-13.6-2.63H263.18Z"></path><path class="cls-1" d="M361.61,96.15h16.54a4.9,4.9,0,0,1,2.93.67A3.46,3.46,0,0,1,382.25,99l15.37,85.78a3.5,3.5,0,0,1-.57,2.78,2.94,2.94,0,0,1-2.52,1.12H381.31q-3.22,0-3.65-2.88l-2.32-17.22H339.68l-8.24,17.18a5.06,5.06,0,0,1-4.49,2.92h-13.9a2.29,2.29,0,0,1-2.29-1.26,3.83,3.83,0,0,1,.18-3.15l45.85-85.78A5.49,5.49,0,0,1,361.61,96.15ZM347.12,153h26.14l-5.78-38.75h-.39Z"></path><path class="cls-1" d="M422.89,188.63H411.22q-3.24,0-2.72-3.26l15-86.05c.44-2.11,1.66-3.17,3.68-3.17h27.41q17.43,0,26.16,5.85t8.72,19a63.3,63.3,0,0,1-.65,8Q486,146.6,475.59,154.21t-30.08,7.62H430.67l-4.15,23.5Q425.74,188.63,422.89,188.63Zm10.55-42.56H446.7q10.91,0,16.41-3.88t7.22-13.2a43.18,43.18,0,0,0,.53-5.12q0-6.44-4.34-9.2t-13.66-2.76h-13.4Z"></path><path class="cls-1" d="M542,158.14l-4.79,27.16q-.53,3.33-3.63,3.33h-11.8c-2.17,0-3.07-1.1-2.72-3.29l5.45-30.9L503.44,100a2.57,2.57,0,0,1,.11-2.63,2.65,2.65,0,0,1,2.4-1.18h11.94q2.76,0,3.76,3.21l9.66,27.87L536,139.76h.16l8.71-12.64L564.24,99a5.73,5.73,0,0,1,4.86-2.88h13.6a2,2,0,0,1,2.19,1.43,4.28,4.28,0,0,1-.52,3.16Z"></path><path class="cls-1" d="M311,260.39H275.72l-6,34.29q-.78,3.29-3.63,3.28H254.38c-2.34,0-3.24-1.08-2.72-3.23l15-86.06a3.36,3.36,0,0,1,3.63-3.19h51.33q3.15,0,2.76,3l-1.58,9.33q-.52,3.28-3.67,3.28H282.65L278.43,245h35.08q3.28,0,2.76,3.29l-1.58,8.93C314.25,259.34,313,260.39,311,260.39Z"></path><path class="cls-1" d="M356.82,208.65,344,281.41H379.2q3.41,0,2.76,3.15l-1.84,10.12q-.53,3.29-3.68,3.28H326q-3.54,0-2.75-3.28l15-86.05a3.4,3.4,0,0,1,3.71-3.15H354Q357.34,205.48,356.82,208.65Z"></path><path class="cls-1" d="M454,258.42H418.87l-4.21,23.78H452q3.28,0,2.76,3.15l-1.58,9.33q-.78,3.29-3.81,3.28H397.1q-3.57,0-2.77-3.3l15.21-86a3.38,3.38,0,0,1,3.68-3.16h51.65q3.4,0,2.89,3.16L466.05,218q-.53,3.28-3.68,3.29H425.46l-3.89,21.93h35.08c2,0,2.89,1.1,2.62,3.29l-1.57,8.67Q457,258.42,454,258.42Z"></path><path class="cls-1" d="M506.92,265.79,481.69,295.1q-2.24,2.86-5,2.86h-13c-1.14,0-1.84-.41-2.1-1.25a2.83,2.83,0,0,1,.79-2.69l37-43-21.26-41.71a2.81,2.81,0,0,1,0-2.63,2.33,2.33,0,0,1,2.21-1.18h12.81q2.72,0,4.14,2.91l14.43,28.3,24.48-28.45a6.08,6.08,0,0,1,4.87-2.76H554.2c1.14,0,1.84.4,2.1,1.19a2.8,2.8,0,0,1-.78,2.65l-36.29,42.16L541,294.17a2.6,2.6,0,0,1-.06,2.59,2.46,2.46,0,0,1-2.27,1.2H526a4.47,4.47,0,0,1-4.14-2.89Z"></path><path class="cls-1" d="M697,37.61c-.41,14.57-14.62,24.16-27.6,18.64a20,20,0,0,1-11.8-18.84c.4-14.57,14.61-24.16,27.6-18.64A20,20,0,0,1,697,37.61Z"></path><path class="cls-1" d="M622.05,3.47c-24.17,84-6.13,176.62,170.7,248.24,5.16,2.09,8.92-5.41,4.21-8.4C718.77,193.73,627.78,115.17,631,4.79A4.54,4.54,0,0,0,622.05,3.47Z"></path><path class="cls-1" d="M609.74,143.45a6.9,6.9,0,0,0-.78,1.06C593.69,172,558.23,248,575.52,335.35c1.65,8.39,13.57,7.29,13.87-1.29,1.48-41.62,10.3-101.58,43.43-152.34C621.14,167.12,613.93,154.38,609.74,143.45Z"></path><path class="cls-1" d="M748.47,79.8c-38.89-8.58-66.54,3.77-78.68,11.1a131.48,131.48,0,0,0,19.06,27.9,5.23,5.23,0,0,0,2.35-1.25c18.81-17.49,40.28-24.62,56.9-27.4C753.67,89.22,754,81,748.47,79.8Z"></path></g></g></svg>